<?xml version="1.0" encoding="UTF-8" standalone="no"?>
<svg width="92px" height="81px" viewBox="0 0 92 81" version="1.1" xmlns="http://www.w3.org/2000/svg" xmlns:xlink="http://www.w3.org/1999/xlink" xmlns:sketch="http://www.bohemiancoding.com/sketch/ns">
    <!-- Generator: Sketch 3.4.2 (15855) - http://www.bohemiancoding.com/sketch -->
    <title>Groupicon</title>
    <desc>Created with Sketch.</desc>
    <defs></defs>
    <g id="Page-1" stroke="none" stroke-width="1" fill="none" fill-rule="evenodd" sketch:type="MSPage">
        <g id="Rectangle-1-+-Group-Copy-3" sketch:type="MSLayerGroup">
            <g id="Group" sketch:type="MSShapeGroup">
                <path d="M0,45.6775568 L4.18181818,45.6775568" id="Shape" stroke="#FFFFFF" stroke-width="4.16955"></path>
                <path d="M87.8181818,45.6775568 L92,45.6775568" id="Shape" stroke="#FFFFFF" stroke-width="4.16955"></path>
                <path d="M1.56818182,57.4699602 L5.60781818,56.3971705" id="Shape" stroke="#FFFFFF" stroke-width="4.16955"></path>
                <path d="M86.3921818,34.9579432 L90.4318182,33.8851534" id="Shape" stroke="#FFFFFF" stroke-width="4.16955"></path>
                <path d="M6.164,68.4588068 L9.78545455,66.3877841" id="Shape" stroke="#FFFFFF" stroke-width="4.16955"></path>
                <path d="M82.2145455,24.9673295 L85.836,22.8963068" id="Shape" stroke="#FFFFFF" stroke-width="4.16955"></path>
                <path d="M75.5696364,16.3891534 L78.5261818,13.4607273" id="Shape" stroke="#FFFFFF" stroke-width="4.16955"></path>
                <path d="M66.9090909,9.80744318 L69,6.22043182" id="Shape" stroke="#FFFFFF" stroke-width="4.16955"></path>
                <path d="M56.8225455,5.66953977 L57.9056364,1.66832386" id="Shape" stroke="#FFFFFF" stroke-width="4.16955"></path>
                <path d="M35.1774545,5.66953977 L34.0943636,1.66832386" id="Shape" stroke="#FFFFFF" stroke-width="4.16955"></path>
                <path d="M25.0909091,9.80744318 L23,6.22043182" id="Shape" stroke="#FFFFFF" stroke-width="4.16955"></path>
                <path d="M16.4303636,16.3891534 L13.4738182,13.4607273" id="Shape" stroke="#FFFFFF" stroke-width="4.16955"></path>
                <path d="M85.836,68.4588068 L82.2145455,66.3877841" id="Shape" stroke="#FFFFFF" stroke-width="4.16955"></path>
                <path d="M9.78545455,24.9673295 L6.164,22.8963068" id="Shape" stroke="#FFFFFF" stroke-width="4.16955"></path>
                <path d="M90.4318182,57.4699602 L86.3921818,56.3971705" id="Shape" stroke="#FFFFFF" stroke-width="4.16955"></path>
                <path d="M5.60781818,34.9579432 L1.56818182,33.8851534" id="Shape" stroke="#FFFFFF" stroke-width="4.16955"></path>
                <path d="M46,4.25710227 L46,0.115056818" id="Shape" stroke="#FFFFFF" stroke-width="4.16955"></path>
                <path d="M71.1327273,20.7797216 C64.4209091,14.1317386 55.4969091,10.4701705 46,10.4701705 C36.5030909,10.4701705 27.5790909,14.1317386 20.8672727,20.7797216 C7.01290909,34.5064602 7.01290909,56.8445114 20.8672727,70.57125 C27.5790909,77.219233 36.5072727,80.8808011 46,80.8808011 C55.4927273,80.8808011 64.4209091,77.219233 71.1327273,70.57125 C84.9912727,56.8445114 84.9912727,34.5106023 71.1327273,20.7797216 L71.1327273,20.7797216 Z M58.5454545,39.4644886 C55.0870909,39.4644886 52.2727273,36.676892 52.2727273,33.2514205 C52.2727273,29.8259489 55.0870909,27.0383523 58.5454545,27.0383523 C62.0038182,27.0383523 64.8181818,29.8259489 64.8181818,33.2514205 C64.8181818,36.676892 62.0038182,39.4644886 58.5454545,39.4644886 L58.5454545,39.4644886 Z" id="Shape" fill="#FFFFFF"></path>
            </g>
        </g>
    </g>
</svg>